<?xml version="1.0" encoding="utf-8"?>
<!-- Generator: Adobe Illustrator 15.0.0, SVG Export Plug-In . SVG Version: 6.00 Build 0)  -->
<!DOCTYPE svg PUBLIC "-//W3C//DTD SVG 1.1//EN" "http://www.w3.org/Graphics/SVG/1.1/DTD/svg11.dtd">
<svg version="1.1" xmlns="http://www.w3.org/2000/svg" xmlns:xlink="http://www.w3.org/1999/xlink" x="0px" y="0px" width="48px"
	 height="288px" viewBox="0 0 48 288" enable-background="new 0 0 48 288" xml:space="preserve">
<g id="Layer_1" display="none">
	<rect display="inline" opacity="0.25" fill="#DF0088" width="48" height="48"/>
	<rect y="48" display="inline" opacity="0.25" fill="#05DF00" width="48" height="48"/>
	<rect y="96" display="inline" opacity="0.25" fill="#DF0088" width="48" height="48"/>
	<rect y="144" display="inline" opacity="0.25" fill="#05DF00" width="48" height="48"/>
	<rect y="192" display="inline" opacity="0.25" fill="#DF0088" width="48" height="48"/>
	<rect y="240" display="inline" opacity="0.25" fill="#05DF00" width="48" height="48"/>
</g>
<g id="Layer_2">
	<g id="off_x5F_normal">
		<g opacity="0.6">
			<path d="M40,37c0,1.657-1.343,3-3,3H11c-1.657,0-3-1.343-3-3V11c0-1.657,1.343-3,3-3h26c1.657,0,3,1.343,3,3V37z"/>
		</g>
		<g>
			<path fill="#FFFFFF" d="M37,8c1.657,0,3,1.344,3,3v26c0,1.657-1.343,3-3,3H11c-1.656,0-3-1.343-3-3V11c0-1.656,1.344-3,3-3H37
				 M37,6H11c-2.757,0-5,2.243-5,5v26c0,2.757,2.243,5,5,5h26c2.757,0,5-2.243,5-5V11C42,8.243,39.757,6,37,6L37,6z"/>
		</g>
	</g>
	<g id="off_x5F_disabled">
		<g opacity="0.6">
			<g opacity="0.6">
				<path d="M40,132.97c0,1.656-1.343,3-3,3H11c-1.657,0-3-1.344-3-3v-26c0-1.657,1.343-3,3-3h26c1.657,0,3,1.343,3,3V132.97z"/>
			</g>
			<g>
				<path fill="#FFFFFF" d="M37,103.97c1.657,0,3,1.344,3,3v26c0,1.656-1.343,3-3,3H11c-1.656,0-3-1.344-3-3v-26
					c0-1.656,1.344-3,3-3H37 M37,101.97H11c-2.757,0-5,2.243-5,5v26c0,2.757,2.243,5,5,5h26c2.757,0,5-2.244,5-5v-26
					C42,104.213,39.757,101.97,37,101.97L37,101.97z"/>
			</g>
		</g>
	</g>
	<g id="on_x5F_normal">
		<g opacity="0.6">
			<path d="M40,181.027c0,1.656-1.343,3-3,3H11c-1.657,0-3-1.344-3-3v-26c0-1.656,1.343-3,3-3h26c1.657,0,3,1.344,3,3V181.027z"/>
		</g>
		<g>
			<path fill="#FFFFFF" d="M37,152.027c1.657,0,3,1.344,3,3v26c0,1.656-1.343,3-3,3H11c-1.656,0-3-1.344-3-3v-26
				c0-1.656,1.344-3,3-3H37 M37,150.027H11c-2.757,0-5,2.243-5,5v26c0,2.757,2.243,5,5,5h26c2.757,0,5-2.243,5-5v-26
				C42,152.271,39.757,150.027,37,150.027L37,150.027z"/>
		</g>
		<path fill="#1DDBD9" d="M37.139,160.713l-2.121-2.123c-0.391-0.391-1.022-0.39-1.414,0l-12.729,12.729l-5.656-5.656
			c-0.391-0.391-1.023-0.391-1.414,0l-2.122,2.121c-0.39,0.391-0.391,1.023,0,1.414l8.485,8.486c0.393,0.391,1.172,0.39,1.563,0
			l2.27-2.122c0-0.001,0-0.001,0-0.001l13.286-13.434C37.678,161.735,37.529,161.104,37.139,160.713z"/>
	</g>
	<g>
		<g opacity="0.6">
			<path d="M40,229.036c0,1.656-1.343,3-3,3H11c-1.657,0-3-1.344-3-3v-26c0-1.656,1.343-3,3-3h26c1.657,0,3,1.344,3,3V229.036z"/>
		</g>
		<g>
			<path fill="#FFFFFF" d="M37,200.036c1.657,0,3,1.344,3,3v26c0,1.656-1.343,3-3,3H11c-1.656,0-3-1.344-3-3v-26
				c0-1.656,1.344-3,3-3H37 M37,198.036H11c-2.757,0-5,2.243-5,5v26c0,2.757,2.243,5,5,5h26c2.757,0,5-2.243,5-5v-26
				C42,200.279,39.757,198.036,37,198.036L37,198.036z"/>
		</g>
		<path fill="#1DDBD9" d="M37.139,208.722l-2.121-2.123c-0.391-0.391-1.022-0.39-1.414,0l-12.729,12.729l-5.656-5.656
			c-0.391-0.391-1.023-0.391-1.414,0l-2.122,2.121c-0.39,0.391-0.391,1.023,0,1.414l8.485,8.486c0.392,0.391,1.172,0.39,1.563,0
			L24,223.57c0-0.001,0-0.001,0-0.001l13.286-13.434C37.678,209.744,37.529,209.112,37.139,208.722z"/>
		<g opacity="0.3">
			<path d="M37,192.724H11c-5.514,0-10,4.486-10,10v26c0,5.514,4.486,10,10,10h26c5.514,0,10-4.486,10-10v-26
				C47,197.21,42.514,192.724,37,192.724L37,192.724z"/>
		</g>
	</g>
	<g>
		<g id="off_x5F_pressed">
			<g opacity="0.6">
				<path d="M40,85.076c0,1.656-1.343,3-3,3H11c-1.657,0-3-1.344-3-3v-26c0-1.657,1.343-3,3-3h26c1.657,0,3,1.343,3,3V85.076z"/>
			</g>
			<g>
				<path fill="#FFFFFF" d="M37,56.076c1.657,0,3,1.344,3,3v26c0,1.656-1.343,3-3,3H11c-1.656,0-3-1.344-3-3v-26
					c0-1.656,1.344-3,3-3H37 M37,54.076H11c-2.757,0-5,2.243-5,5v26c0,2.757,2.243,5,5,5h26c2.757,0,5-2.243,5-5v-26
					C42,56.319,39.757,54.076,37,54.076L37,54.076z"/>
			</g>
		</g>
		<g opacity="0.3">
			<path d="M37,49.076H11c-5.514,0-10,4.486-10,10v26c0,5.514,4.486,10,10,10h26c5.514,0,10-4.486,10-10v-26
				C47,53.562,42.514,49.076,37,49.076L37,49.076z"/>
		</g>
	</g>
	<g id="on_x5F_disabled">
		<g opacity="0.6">
			<g opacity="0.6">
				<path d="M40,277c0,1.656-1.343,3-3,3H11c-1.657,0-3-1.344-3-3v-26c0-1.656,1.343-3,3-3h26c1.657,0,3,1.344,3,3V277z"/>
			</g>
			<g>
				<path fill="#FFFFFF" d="M37,248c1.657,0,3,1.344,3,3v26c0,1.656-1.343,3-3,3H11c-1.656,0-3-1.344-3-3v-26c0-1.656,1.344-3,3-3
					H37 M37,246H11c-2.757,0-5,2.243-5,5v26c0,2.757,2.243,5,5,5h26c2.757,0,5-2.243,5-5v-26C42,248.243,39.757,246,37,246L37,246z"
					/>
			</g>
			<path fill="#1BBDB9" d="M37.139,256.686l-2.121-2.123c-0.391-0.391-1.022-0.39-1.414,0l-12.729,12.729l-5.656-5.656
				c-0.391-0.391-1.023-0.391-1.414,0l-2.121,2.121c-0.391,0.391-0.392,1.023,0,1.414l8.484,8.486c0.393,0.391,1.172,0.39,1.563,0
				l2.27-2.122c0-0.001,0-0.001,0-0.001L37.286,258.1C37.678,257.708,37.529,257.076,37.139,256.686z"/>
		</g>
	</g>
</g>
</svg>
