<?xml version="1.0" encoding="utf-8"?>
<!-- Generator: Adobe Illustrator 15.0.0, SVG Export Plug-In . SVG Version: 6.00 Build 0)  -->
<!DOCTYPE svg PUBLIC "-//W3C//DTD SVG 1.1//EN" "http://www.w3.org/Graphics/SVG/1.1/DTD/svg11.dtd">
<svg version="1.1" xmlns="http://www.w3.org/2000/svg" xmlns:xlink="http://www.w3.org/1999/xlink" x="0px" y="0px" width="61px"
	 height="61px" viewBox="0 0 61 61" enable-background="new 0 0 61 61" xml:space="preserve">
<g id="Layer_1" display="none">
	<path display="inline" fill="#FFFFFF" d="M49.774,18.297l-0.137-0.137c-0.353-0.353-0.925-0.353-1.277,0L24.958,41.563
		L12.162,28.768c-0.354-0.354-0.925-0.354-1.277,0l-0.137,0.137c-0.354,0.353-0.354,0.925,0,1.277l13.435,13.436l0.137,0.137
		c0.353,0.354,0.925,0.354,1.278,0l0.137-0.137l0,0l24.041-24.042C50.127,19.222,50.127,18.65,49.774,18.297z"/>
</g>
<g id="Layer_2">
	<path fill="#FFFFFF" d="M43.232,16.354L30.504,29.082L17.776,16.354c-0.39-0.391-1.023-0.391-1.414,0s-0.391,1.023,0,1.414
		L29.09,30.496L16.362,43.225c-0.391,0.391-0.391,1.023,0,1.414s1.024,0.391,1.414,0L30.504,31.91l12.729,12.729
		c0.392,0.392,1.023,0.391,1.414,0c0.392-0.391,0.392-1.022,0-1.414L31.918,30.496l12.729-12.728c0.392-0.391,0.392-1.023,0-1.414
		C44.256,15.963,43.623,15.963,43.232,16.354z"/>
</g>
</svg>
