<?xml version="1.0" encoding="utf-8"?>
<!-- Generator: Adobe Illustrator 15.0.0, SVG Export Plug-In . SVG Version: 6.00 Build 0)  -->
<!DOCTYPE svg PUBLIC "-//W3C//DTD SVG 1.1//EN" "http://www.w3.org/Graphics/SVG/1.1/DTD/svg11.dtd">
<svg version="1.1" id="Layer_1" xmlns="http://www.w3.org/2000/svg" xmlns:xlink="http://www.w3.org/1999/xlink" x="0px" y="0px"
	 width="72px" height="216px" viewBox="0 0 72 216" enable-background="new 0 0 72 216" xml:space="preserve">
<circle opacity="0.8" fill="#5B5B5B" enable-background="new    " cx="36" cy="36" r="36"/>
<path fill="#FFFFFF" d="M48.729,21.858L36,34.586L23.272,21.858c-0.39-0.391-1.023-0.391-1.414,0s-0.391,1.023,0,1.414L34.586,36
	L21.858,48.728c-0.391,0.391-0.391,1.024,0,1.415c0.391,0.39,1.024,0.39,1.414,0L36,37.414l12.729,12.729
	c0.394,0.391,1.023,0.39,1.414,0c0.394-0.391,0.394-1.023,0-1.415L37.414,36l12.729-12.728c0.394-0.391,0.394-1.023,0-1.414
	C49.752,21.467,49.119,21.467,48.729,21.858z"/>
<g opacity="0.4">
	<circle opacity="0.8" fill="#5B5B5B" enable-background="new    " cx="36" cy="180" r="36"/>
	<path fill="#FFFFFF" d="M48.729,165.857L36,178.586l-12.728-12.729c-0.39-0.392-1.023-0.392-1.414,0s-0.391,1.022,0,1.414
		L34.586,180l-12.728,12.729c-0.391,0.392-0.391,1.023,0,1.414c0.391,0.392,1.024,0.392,1.414,0L36,181.414l12.729,12.729
		c0.394,0.393,1.023,0.392,1.414,0c0.394-0.391,0.394-1.021,0-1.414L37.414,180l12.729-12.729c0.394-0.392,0.394-1.022,0-1.414
		C49.752,165.467,49.119,165.467,48.729,165.857z"/>
</g>
<g opacity="0.48">
	<path fill="#5B5B5B" d="M36,143c-9.349,0-18.139-3.641-24.749-10.251c-13.646-13.646-13.646-35.853,0-49.498
		C17.862,76.641,26.651,73,36,73c9.35,0,18.139,3.641,24.749,10.251S70.999,98.65,70.999,108c0,9.35-3.64,18.139-10.25,24.749
		S45.35,143,36,143z"/>
	<path fill="#D7D7D7" d="M36,74c9.082,0,17.62,3.536,24.042,9.958c13.256,13.257,13.256,34.827,0,48.084
		C53.62,138.464,45.082,142,36,142s-17.62-3.536-24.042-9.958c-13.256-13.257-13.256-34.827,0-48.084C18.38,77.536,26.918,74,36,74
		 M36,72c-9.213,0-18.427,3.516-25.456,10.544c-14.059,14.06-14.059,36.853,0,50.912C17.575,140.484,26.787,144,36,144
		s18.426-3.516,25.456-10.544c14.06-14.06,14.06-36.854,0-50.912C54.428,75.516,45.214,72,36,72L36,72z"/>
</g>
<path fill="#FFFFFF" d="M48.729,93.857L36,106.586L23.272,93.857c-0.39-0.393-1.023-0.393-1.414,0c-0.391,0.391-0.391,1.021,0,1.414
	L34.586,108l-12.728,12.729c-0.391,0.393-0.391,1.023,0,1.414c0.391,0.393,1.024,0.393,1.414,0L36,109.414l12.729,12.729
	c0.394,0.394,1.023,0.393,1.414,0c0.394-0.391,0.394-1.021,0-1.414L37.414,108l12.729-12.729c0.394-0.393,0.394-1.023,0-1.414
	C49.752,93.466,49.119,93.467,48.729,93.857z"/>
</svg>
