<?xml version="1.0" encoding="utf-8"?>
<!-- Generator: Adobe Illustrator 15.0.0, SVG Export Plug-In . SVG Version: 6.00 Build 0)  -->
<!DOCTYPE svg PUBLIC "-//W3C//DTD SVG 1.1//EN" "http://www.w3.org/Graphics/SVG/1.1/DTD/svg11.dtd">
<svg version="1.1" id="Layer_1" xmlns="http://www.w3.org/2000/svg" xmlns:xlink="http://www.w3.org/1999/xlink" x="0px" y="0px"
	 width="84px" height="168px" viewBox="0 0 84 168" enable-background="new 0 0 84 168" xml:space="preserve">
<circle opacity="0.8" fill="#B0B1B1" enable-background="new    " cx="42" cy="42" r="42"/>
<circle display="none" opacity="0.8" fill="#1DDBD9" enable-background="new    " cx="42" cy="42" r="42"/>
<g>
	<g>
		<path fill="#FFFFFF" d="M42.187,32.056c1.536,0,14.793-0.278,14.793-3.916c0-2.47-5.976-3.195-10.441-3.481
			c-0.02-1.465-0.705-2.61-2.176-2.61h-4.352c-1.476,0-2.165,1.139-2.176,2.61c-4.448,0.299-10.438,1.211-10.438,3.64
			C27.397,31.937,40.65,32.056,42.187,32.056z M42.187,33.796c-8.23,0-14.793-1.365-14.793-3.046l3.073,27.436
			c0,1.682,5.127,3.893,11.72,3.893c6.592,0,11.749-2.234,11.749-3.916l3.045-27.412C56.98,32.432,50.418,33.796,42.187,33.796z"/>
	</g>
</g>
<circle opacity="0.8" fill="#1DDBD9" enable-background="new    " cx="42" cy="126" r="42"/>
<g>
	<g>
		<path fill="#FFFFFF" d="M42.188,116.055c1.535,0,14.792-0.277,14.792-3.916c0-2.469-5.975-3.195-10.44-3.479
			c-0.021-1.467-0.705-2.611-2.177-2.611h-4.351c-1.477,0-2.166,1.141-2.177,2.611c-4.448,0.299-10.438,1.211-10.438,3.639
			C27.396,115.936,40.65,116.055,42.188,116.055z M42.188,117.797c-8.23,0-14.793-1.365-14.793-3.047l3.072,27.436
			c0,1.684,5.127,3.895,11.721,3.895c6.591,0,11.748-2.234,11.748-3.916l3.045-27.412C56.98,116.432,50.418,117.797,42.188,117.797z
			"/>
	</g>
</g>
</svg>
