<?xml version="1.0" encoding="utf-8"?>
<!-- Generator: Adobe Illustrator 15.0.0, SVG Export Plug-In . SVG Version: 6.00 Build 0)  -->
<!DOCTYPE svg PUBLIC "-//W3C//DTD SVG 1.1//EN" "http://www.w3.org/Graphics/SVG/1.1/DTD/svg11.dtd">
<svg version="1.1" id="Layer_1" xmlns="http://www.w3.org/2000/svg" xmlns:xlink="http://www.w3.org/1999/xlink" x="0px" y="0px"
	 width="84px" height="168px" viewBox="0 0 84 168" enable-background="new 0 0 84 168" xml:space="preserve">
<circle opacity="0.8" fill="#B0B1B1" enable-background="new    " cx="42" cy="42" r="42"/>
<circle opacity="0.8" fill="#1DDBD9" enable-background="new    " cx="42" cy="126" r="42"/>
<g display="none">
	<g display="inline">
		<path fill="#FFFFFF" d="M42.187,32.055c1.536,0,14.793-0.278,14.793-3.916c0-2.47-5.976-3.195-10.441-3.481
			c-0.02-1.465-0.705-2.61-2.176-2.61h-4.352c-1.476,0-2.165,1.139-2.176,2.61c-4.448,0.299-10.438,1.211-10.438,3.64
			C27.397,31.936,40.65,32.055,42.187,32.055z M42.187,33.796c-8.23,0-14.793-1.365-14.793-3.046l3.073,27.436
			c0,1.682,5.127,3.893,11.72,3.893c6.592,0,11.749-2.234,11.749-3.916L56.98,30.75C56.98,32.431,50.418,33.796,42.187,33.796z"/>
	</g>
</g>
<path fill="#FFFFFF" d="M53.6,49.137c-1.916,0-3.629,0.852-4.799,2.19l-14.002-8.39c0.06-0.351,0.098-0.708,0.098-1.076
	c0-0.477-0.056-0.938-0.155-1.383l14.355-7.757c1.15,1.153,2.742,1.865,4.502,1.865c3.517,0,6.365-2.852,6.365-6.367
	c0-3.515-2.852-6.367-6.365-6.367c-3.516,0-6.367,2.852-6.367,6.367c0,0.58,0.084,1.139,0.229,1.673l-14.228,7.69
	c-1.164-1.279-2.837-2.087-4.703-2.087c-3.516,0-6.366,2.851-6.366,6.367c0,3.516,2.851,6.367,6.366,6.367
	c1.904,0,3.607-0.84,4.774-2.166l14.02,8.4c-0.057,0.34-0.092,0.686-0.092,1.039c0,3.518,2.852,6.367,6.367,6.367
	c3.514,0,6.364-2.852,6.364-6.367C59.966,51.986,57.115,49.137,53.6,49.137z"/>
<path fill="#FFFFFF" d="M53.6,133.137c-1.916,0-3.629,0.852-4.799,2.19l-14.002-8.39c0.06-0.352,0.098-0.709,0.098-1.076
	c0-0.478-0.056-0.938-0.155-1.383l14.355-7.756c1.15,1.151,2.742,1.863,4.502,1.863c3.517,0,6.365-2.854,6.365-6.365
	c0-3.517-2.852-6.367-6.365-6.367c-3.516,0-6.367,2.852-6.367,6.367c0,0.578,0.084,1.139,0.229,1.672l-14.229,7.688
	c-1.164-1.278-2.837-2.087-4.703-2.087c-3.516,0-6.366,2.852-6.366,6.365c0,3.518,2.851,6.367,6.366,6.367
	c1.904,0,3.607-0.84,4.774-2.166l14.019,8.4c-0.057,0.34-0.092,0.686-0.092,1.039c0,3.518,2.853,6.367,6.367,6.367
	c3.514,0,6.365-2.852,6.365-6.367C59.966,135.986,57.115,133.137,53.6,133.137z"/>
</svg>
