<?xml version="1.0" encoding="utf-8"?>
<!-- Generator: Adobe Illustrator 15.0.0, SVG Export Plug-In . SVG Version: 6.00 Build 0)  -->
<!DOCTYPE svg PUBLIC "-//W3C//DTD SVG 1.1//EN" "http://www.w3.org/Graphics/SVG/1.1/DTD/svg11.dtd">
<svg version="1.1" id="Layer_1" xmlns="http://www.w3.org/2000/svg" xmlns:xlink="http://www.w3.org/1999/xlink" x="0px" y="0px"
	 width="72px" height="216px" viewBox="0 0 72 216" enable-background="new 0 0 72 216" xml:space="preserve">
<circle opacity="0.8" fill="#5B5B5B" enable-background="new    " cx="36" cy="36" r="36"/>
<g opacity="0.48">
	<path fill="#5B5B5B" d="M36,143c-19.299,0-35-15.701-35-35s15.701-35,35-35s35,15.701,35,35S55.3,143,36,143z"/>
	<path fill="#D7D7D7" d="M36,74c18.748,0,34,15.252,34,34s-15.253,34-34,34S2,126.748,2,108S17.253,74,36,74 M36,72
		C16.118,72,0,88.117,0,108c0,19.882,16.118,36,36,36c19.881,0,36-16.118,36-36S55.883,72,36,72L36,72z"/>
</g>
<path fill="#FFFFFF" d="M55.516,24.047l-0.138-0.137c-0.353-0.353-0.925-0.353-1.276,0L30.698,47.313L17.901,34.518
	c-0.354-0.354-0.925-0.354-1.277,0l-0.137,0.137c-0.354,0.352-0.354,0.924,0,1.277l13.436,13.435l0.137,0.137
	c0.353,0.353,0.925,0.353,1.278,0l0.137-0.137l0,0l24.041-24.042C55.867,24.972,55.867,24.4,55.516,24.047z"/>
<g opacity="0.4">
	<circle opacity="0.8" fill="#5B5B5B" enable-background="new    " cx="36" cy="180" r="36"/>
	<path fill="#FFFFFF" d="M55.516,168.047l-0.138-0.137c-0.353-0.354-0.925-0.354-1.276,0l-23.402,23.402l-12.797-12.795
		c-0.354-0.354-0.925-0.354-1.277,0l-0.137,0.137c-0.354,0.353-0.354,0.925,0,1.277l13.436,13.436l0.137,0.137
		c0.353,0.354,0.925,0.354,1.278,0l0.137-0.137l0,0l24.042-24.042C55.867,168.973,55.867,168.4,55.516,168.047z"/>
</g>
<path fill="#FFFFFF" d="M55.337,95.34L55.2,95.203c-0.353-0.352-0.925-0.352-1.277,0l-23.402,23.401l-12.797-12.793
	c-0.354-0.354-0.925-0.354-1.277,0l-0.137,0.137c-0.354,0.352-0.354,0.924,0,1.277l13.435,13.435l0.137,0.137
	c0.353,0.353,0.925,0.353,1.278,0l0.137-0.137l0,0l24.041-24.043C55.689,96.266,55.689,95.693,55.337,95.34z"/>
</svg>
