<?xml version="1.0" encoding="utf-8"?>
<!-- Generator: Adobe Illustrator 15.0.0, SVG Export Plug-In . SVG Version: 6.00 Build 0)  -->
<!DOCTYPE svg PUBLIC "-//W3C//DTD SVG 1.1//EN" "http://www.w3.org/Graphics/SVG/1.1/DTD/svg11.dtd">
<svg version="1.1" id="Layer_1" xmlns="http://www.w3.org/2000/svg" xmlns:xlink="http://www.w3.org/1999/xlink" x="0px" y="0px"
	 width="48px" height="288px" viewBox="0 0 48 288" enable-background="new 0 0 48 288" xml:space="preserve">
<g>
	<g>
		<circle fill="#CCCCCC" cx="24" cy="24.002" r="24"/>
	</g>
	<g>
		<path fill="#525252" d="M24,35.002c-6.065,0-11-4.935-11-11s4.935-11,11-11s11,4.934,11,11S30.065,35.002,24,35.002z M24,16.202
			c-4.301,0-7.8,3.499-7.8,7.8s3.499,7.8,7.8,7.8s7.8-3.499,7.8-7.8S28.301,16.202,24,16.202z"/>
	</g>
</g>
<g>
	<g>
		<circle fill="#CCCCCC" cx="24" cy="72.001" r="24"/>
	</g>
	<g>
		<path fill="#525252" d="M24,83.001c-6.065,0-11-4.934-11-11c0-6.065,4.935-11,11-11s11,4.934,11,11
			C35,78.067,30.065,83.001,24,83.001z M24,64.201c-4.301,0-7.8,3.499-7.8,7.8s3.499,7.8,7.8,7.8s7.8-3.5,7.8-7.8
			S28.301,64.201,24,64.201z"/>
	</g>
</g>
<g>
	<g enable-background="new    ">
		<circle fill="#EBEBEB" cx="24" cy="120" r="24"/>
	</g>
	<g>
		<path fill="#ADADAD" d="M24,130.889c-6.065,0-11-4.934-11-11s4.935-11,11-11s11,4.935,11,11S30.065,130.889,24,130.889z
			 M24,112.089c-4.301,0-7.8,3.499-7.8,7.8s3.499,7.8,7.8,7.8s7.8-3.499,7.8-7.8S28.301,112.089,24,112.089z"/>
	</g>
</g>
<g>
	<g>
		<circle fill="#1DDBD9" cx="23.999" cy="168" r="24"/>
	</g>
	<g>
		<rect x="22" y="158.465" fill="#FFFFFF" width="3.999" height="19.067"/>
	</g>
</g>
<g>
	<g>
		<circle fill="#1DDBD9" cx="24" cy="215.999" r="23.999"/>
	</g>
	<g>
		<rect x="22" y="206.465" fill="#FFFFFF" width="4" height="19.066"/>
	</g>
</g>
<g>
	<g enable-background="new    ">
		<circle fill="#A5F1F0" cx="24" cy="263.998" r="24"/>
	</g>
	<g>
		<rect x="22" y="254.465" fill="#FFFFFF" width="4" height="19.066"/>
	</g>
</g>
</svg>
