<?xml version="1.0" encoding="utf-8"?>
<!-- Generator: Adobe Illustrator 15.0.0, SVG Export Plug-In . SVG Version: 6.00 Build 0)  -->
<!DOCTYPE svg PUBLIC "-//W3C//DTD SVG 1.1//EN" "http://www.w3.org/Graphics/SVG/1.1/DTD/svg11.dtd">
<svg version="1.1" id="Layer_1" xmlns="http://www.w3.org/2000/svg" xmlns:xlink="http://www.w3.org/1999/xlink" x="0px" y="0px"
	 width="48px" height="288px" viewBox="0 0 48 288" enable-background="new 0 0 48 288" xml:space="preserve">
<circle fill="#CCCCCC" cx="24.023" cy="24.173" r="23.977"/>
<circle fill="#1DDBD9" cx="23.977" cy="168.031" r="23.977"/>
<g>
	<g>
		<path fill="#525252" d="M14.566,30.863c-0.95,0-1.762-0.152-2.433-0.453c-0.669-0.303-1.215-0.735-1.638-1.298
			c-0.421-0.562-0.729-1.242-0.924-2.037C9.376,26.28,9.28,25.391,9.28,24.411v-0.27c0-1.017,0.104-1.923,0.314-2.72
			c0.209-0.796,0.531-1.469,0.965-2.02c0.434-0.551,0.981-0.971,1.646-1.261c0.664-0.29,1.451-0.436,2.361-0.436
			c0.909,0,1.696,0.146,2.36,0.436c0.664,0.29,1.214,0.71,1.647,1.261c0.434,0.549,0.755,1.224,0.965,2.02
			c0.209,0.796,0.314,1.703,0.314,2.72v0.27c0,0.969-0.098,1.849-0.296,2.642c-0.197,0.793-0.508,1.472-0.933,2.038
			c-0.425,0.565-0.971,1.002-1.639,1.311C16.317,30.709,15.512,30.863,14.566,30.863z M14.566,29.354
			c0.473,0,0.882-0.066,1.229-0.197c0.348-0.132,0.647-0.311,0.897-0.539c0.251-0.228,0.457-0.492,0.617-0.794
			c0.157-0.302,0.282-0.628,0.371-0.978c0.09-0.35,0.153-0.712,0.189-1.086c0.036-0.374,0.054-0.743,0.054-1.108v-0.754
			c0-0.347-0.017-0.703-0.051-1.067c-0.033-0.365-0.094-0.721-0.183-1.068c-0.09-0.347-0.214-0.676-0.373-0.987
			c-0.159-0.311-0.363-0.582-0.61-0.813c-0.25-0.23-0.548-0.413-0.897-0.548c-0.351-0.135-0.765-0.202-1.244-0.202
			c-0.479,0-0.894,0.067-1.244,0.202c-0.351,0.135-0.65,0.316-0.897,0.548c-0.25,0.231-0.452,0.501-0.611,0.813
			c-0.159,0.313-0.283,0.64-0.373,0.987c-0.089,0.347-0.15,0.704-0.184,1.068c-0.032,0.364-0.049,0.721-0.049,1.067v0.754
			c0,0.365,0.018,0.735,0.053,1.108c0.036,0.374,0.099,0.736,0.189,1.086c0.088,0.35,0.214,0.676,0.372,0.978
			c0.16,0.302,0.364,0.566,0.615,0.794c0.252,0.228,0.551,0.407,0.897,0.539C13.685,29.289,14.093,29.354,14.566,29.354z"/>
	</g>
	<g>
		<path fill="#525252" d="M29.855,17.902v1.49h-6.374v4.03h5.295v1.508h-5.295v5.735H21.66V17.901L29.855,17.902L29.855,17.902z"/>
	</g>
	<g>
		<path fill="#525252" d="M39.29,17.902v1.49h-6.372v4.03h5.295v1.508h-5.295v5.735h-1.821V17.901L39.29,17.902L39.29,17.902
			L39.29,17.902z"/>
	</g>
</g>
<circle fill="#CCCCCC" cx="24.023" cy="72.126" r="23.977"/>
<g>
	<g>
		<path fill="#525252" d="M14.566,78.816c-0.95,0-1.762-0.151-2.433-0.453c-0.669-0.302-1.215-0.734-1.638-1.297
			c-0.421-0.563-0.729-1.242-0.924-2.037c-0.194-0.795-0.291-1.684-0.291-2.666v-0.269c0-1.017,0.104-1.923,0.314-2.72
			c0.209-0.796,0.531-1.469,0.965-2.02c0.434-0.551,0.981-0.971,1.646-1.261c0.664-0.29,1.451-0.436,2.361-0.436
			c0.909,0,1.696,0.146,2.36,0.436s1.214,0.71,1.647,1.261c0.434,0.55,0.755,1.224,0.965,2.02c0.209,0.796,0.314,1.703,0.314,2.72
			v0.269c0,0.97-0.098,1.85-0.296,2.644c-0.197,0.793-0.508,1.472-0.933,2.038c-0.425,0.565-0.971,1.003-1.639,1.311
			C16.317,78.662,15.512,78.816,14.566,78.816z M14.566,77.308c0.473,0,0.882-0.066,1.229-0.197
			c0.348-0.132,0.647-0.311,0.897-0.539c0.251-0.228,0.457-0.492,0.617-0.794c0.157-0.302,0.282-0.628,0.371-0.978
			c0.09-0.351,0.153-0.712,0.189-1.086c0.036-0.374,0.054-0.743,0.054-1.108v-0.754c0-0.347-0.017-0.703-0.051-1.068
			c-0.033-0.366-0.094-0.721-0.183-1.068c-0.09-0.347-0.214-0.676-0.373-0.987c-0.159-0.312-0.363-0.582-0.61-0.813
			c-0.25-0.23-0.548-0.413-0.897-0.547c-0.351-0.135-0.765-0.202-1.244-0.202c-0.479,0-0.894,0.067-1.244,0.202
			c-0.351,0.134-0.65,0.316-0.897,0.547c-0.25,0.231-0.452,0.501-0.611,0.813c-0.159,0.312-0.283,0.64-0.373,0.987
			c-0.089,0.347-0.15,0.704-0.184,1.068c-0.032,0.365-0.049,0.721-0.049,1.068v0.754c0,0.365,0.018,0.734,0.053,1.108
			c0.036,0.375,0.099,0.736,0.189,1.086c0.088,0.35,0.214,0.676,0.372,0.978c0.16,0.302,0.364,0.566,0.615,0.794
			c0.252,0.228,0.551,0.407,0.897,0.539C13.685,77.242,14.093,77.308,14.566,77.308z"/>
	</g>
	<g>
		<path fill="#525252" d="M29.855,65.855v1.49h-6.374v4.03h5.295v1.508h-5.295v5.735H21.66V65.854L29.855,65.855L29.855,65.855z"/>
	</g>
	<g>
		<path fill="#525252" d="M39.29,65.855v1.49h-6.372v4.03h5.295v1.508h-5.295v5.735h-1.821V65.854L39.29,65.855L39.29,65.855
			L39.29,65.855z"/>
	</g>
</g>
<circle fill="#EBEBEB" cx="24.023" cy="120.079" r="23.976"/>
<g>
	<g>
		<path fill="#ADADAD" d="M14.566,126.77c-0.95,0-1.762-0.152-2.433-0.453c-0.669-0.303-1.215-0.735-1.638-1.297
			c-0.421-0.563-0.729-1.243-0.924-2.039c-0.194-0.794-0.291-1.683-0.291-2.665v-0.27c0-1.016,0.104-1.923,0.314-2.719
			c0.209-0.796,0.531-1.469,0.965-2.02c0.434-0.551,0.981-0.971,1.646-1.261c0.664-0.291,1.451-0.437,2.361-0.437
			c0.909,0,1.696,0.146,2.36,0.437c0.664,0.29,1.214,0.709,1.647,1.261c0.434,0.55,0.755,1.223,0.965,2.02
			c0.209,0.796,0.314,1.703,0.314,2.719v0.27c0,0.97-0.098,1.85-0.296,2.643c-0.197,0.793-0.508,1.472-0.933,2.039
			c-0.425,0.565-0.971,1.002-1.639,1.31C16.317,126.615,15.512,126.77,14.566,126.77z M14.566,125.261
			c0.473,0,0.882-0.067,1.229-0.198c0.348-0.132,0.647-0.311,0.897-0.539c0.251-0.229,0.457-0.492,0.617-0.794
			c0.157-0.302,0.282-0.628,0.371-0.978c0.09-0.351,0.153-0.713,0.189-1.086c0.036-0.375,0.054-0.743,0.054-1.108v-0.753
			c0-0.347-0.017-0.704-0.051-1.068c-0.033-0.366-0.094-0.721-0.183-1.067c-0.09-0.349-0.214-0.676-0.373-0.989
			c-0.159-0.311-0.363-0.581-0.61-0.812c-0.25-0.231-0.548-0.414-0.897-0.548c-0.351-0.135-0.765-0.203-1.244-0.203
			c-0.479,0-0.894,0.067-1.244,0.203c-0.351,0.134-0.65,0.316-0.897,0.548c-0.25,0.231-0.452,0.501-0.611,0.812
			c-0.159,0.313-0.283,0.64-0.373,0.989c-0.089,0.346-0.15,0.701-0.184,1.067c-0.032,0.364-0.049,0.721-0.049,1.068v0.753
			c0,0.365,0.018,0.733,0.053,1.108c0.036,0.373,0.099,0.735,0.189,1.086c0.088,0.35,0.214,0.676,0.372,0.978
			c0.16,0.302,0.364,0.566,0.615,0.794c0.252,0.228,0.551,0.407,0.897,0.539C13.685,125.194,14.093,125.261,14.566,125.261z"/>
	</g>
	<g>
		<path fill="#ADADAD" d="M29.855,113.809v1.489h-6.374v4.03h5.295v1.508h-5.295v5.735H21.66v-12.763L29.855,113.809L29.855,113.809
			z"/>
	</g>
	<g>
		<path fill="#ADADAD" d="M39.29,113.809v1.489h-6.372v4.03h5.295v1.508h-5.295v5.735h-1.821v-12.763L39.29,113.809L39.29,113.809
			L39.29,113.809z"/>
	</g>
</g>
<g>
	<path fill="#FFFFFF" d="M18.105,174.5c-0.951,0-1.762-0.15-2.432-0.453c-0.669-0.301-1.216-0.734-1.638-1.299
		c-0.421-0.559-0.729-1.24-0.924-2.035c-0.195-0.797-0.292-1.682-0.292-2.666v-0.27c0-1.016,0.104-1.924,0.313-2.717
		c0.21-0.795,0.532-1.471,0.966-2.02c0.433-0.549,0.982-0.971,1.647-1.26c0.665-0.287,1.45-0.438,2.36-0.438
		c0.909,0,1.696,0.15,2.361,0.438c0.665,0.289,1.214,0.715,1.648,1.26c0.434,0.549,0.755,1.225,0.964,2.02
		c0.209,0.793,0.313,1.703,0.313,2.717v0.27c0,0.969-0.098,1.852-0.296,2.646c-0.197,0.795-0.508,1.473-0.934,2.037
		c-0.425,0.566-0.972,1.002-1.638,1.316C19.857,174.346,19.051,174.5,18.105,174.5z M18.105,172.994c0.473,0,0.883-0.068,1.23-0.199
		c0.348-0.133,0.647-0.311,0.898-0.539c0.252-0.229,0.457-0.492,0.616-0.795c0.159-0.301,0.282-0.627,0.373-0.977
		c0.089-0.35,0.153-0.717,0.188-1.086c0.037-0.375,0.054-0.744,0.054-1.109v-0.754c0-0.348-0.017-0.703-0.05-1.068
		c-0.033-0.363-0.094-0.723-0.184-1.068c-0.089-0.346-0.214-0.676-0.372-0.986c-0.16-0.311-0.363-0.582-0.61-0.813
		c-0.25-0.23-0.549-0.414-0.898-0.547c-0.351-0.135-0.765-0.203-1.243-0.203c-0.479,0-0.895,0.068-1.243,0.203
		c-0.351,0.133-0.651,0.314-0.898,0.547c-0.249,0.23-0.452,0.502-0.611,0.813c-0.159,0.311-0.283,0.641-0.372,0.986
		c-0.09,0.346-0.151,0.705-0.184,1.068c-0.033,0.365-0.05,0.721-0.05,1.068v0.754c0,0.365,0.018,0.734,0.054,1.109
		c0.035,0.373,0.099,0.736,0.188,1.086c0.089,0.35,0.214,0.676,0.373,0.977c0.159,0.303,0.363,0.566,0.615,0.795
		c0.252,0.229,0.551,0.406,0.897,0.539C17.224,172.926,17.632,172.994,18.105,172.994z"/>
	<path fill="#FFFFFF" d="M27.46,161.539l5.96,10.025h0.018v-10.025h1.697v12.762h-2.1l-6.06-10.365H26.94v10.365h-1.688v-12.762
		H27.46z"/>
</g>
<circle fill="#1DDBD9" cx="23.977" cy="215.984" r="23.977"/>
<g>
	<path fill="#FFFFFF" d="M18.105,222.455c-0.951,0-1.762-0.152-2.432-0.455c-0.669-0.301-1.216-0.734-1.638-1.297
		c-0.421-0.561-0.729-1.242-0.924-2.037c-0.195-0.797-0.292-1.682-0.292-2.666v-0.27c0-1.016,0.104-1.924,0.313-2.715
		c0.21-0.797,0.532-1.473,0.966-2.021c0.433-0.549,0.982-0.971,1.647-1.26c0.665-0.287,1.45-0.436,2.36-0.436
		c0.909,0,1.696,0.148,2.361,0.436c0.665,0.289,1.214,0.715,1.648,1.26c0.434,0.549,0.755,1.225,0.964,2.021
		c0.209,0.791,0.313,1.701,0.313,2.715V216c0,0.969-0.098,1.85-0.296,2.646c-0.197,0.795-0.508,1.473-0.934,2.037
		c-0.425,0.566-0.972,1.002-1.638,1.316C19.857,222.299,19.051,222.455,18.105,222.455z M18.105,220.945
		c0.473,0,0.883-0.066,1.23-0.197c0.348-0.131,0.647-0.311,0.898-0.539c0.252-0.229,0.457-0.492,0.616-0.793
		c0.159-0.303,0.282-0.629,0.373-0.979c0.089-0.35,0.153-0.717,0.188-1.086c0.037-0.375,0.054-0.744,0.054-1.109v-0.754
		c0-0.348-0.017-0.703-0.05-1.068c-0.033-0.363-0.094-0.721-0.184-1.068c-0.089-0.346-0.214-0.676-0.372-0.986
		c-0.16-0.311-0.363-0.582-0.61-0.813c-0.25-0.23-0.549-0.414-0.898-0.547c-0.351-0.135-0.765-0.203-1.243-0.203
		c-0.479,0-0.895,0.068-1.243,0.203c-0.351,0.133-0.651,0.314-0.898,0.547c-0.249,0.23-0.452,0.502-0.611,0.813
		c-0.159,0.311-0.283,0.641-0.372,0.986c-0.09,0.348-0.151,0.705-0.184,1.068c-0.033,0.365-0.05,0.721-0.05,1.068v0.754
		c0,0.365,0.018,0.734,0.054,1.109c0.035,0.373,0.099,0.736,0.188,1.086c0.089,0.35,0.214,0.676,0.373,0.979
		c0.159,0.301,0.363,0.564,0.615,0.793c0.252,0.229,0.551,0.408,0.897,0.539C17.224,220.879,17.632,220.945,18.105,220.945z"/>
	<path fill="#FFFFFF" d="M27.46,209.494l5.96,10.023h0.018v-10.023h1.697v12.762h-2.1l-6.06-10.367H26.94v10.367h-1.688v-12.762
		H27.46z"/>
</g>
<circle fill="#A5F1F0" cx="23.977" cy="263.828" r="23.977"/>
<g>
	<path fill="#FFFFFF" d="M18.105,270.408c-0.951,0-1.762-0.15-2.432-0.455c-0.669-0.301-1.216-0.734-1.638-1.295
		c-0.421-0.561-0.729-1.242-0.924-2.039c-0.195-0.797-0.292-1.682-0.292-2.666v-0.27c0-1.016,0.104-1.924,0.313-2.715
		c0.21-0.797,0.532-1.473,0.966-2.021c0.433-0.549,0.982-0.969,1.647-1.26c0.665-0.287,1.45-0.436,2.36-0.436
		c0.909,0,1.696,0.148,2.361,0.436c0.665,0.291,1.214,0.715,1.648,1.26c0.434,0.549,0.755,1.225,0.964,2.021
		c0.209,0.791,0.313,1.701,0.313,2.715v0.27c0,0.969-0.098,1.85-0.296,2.646c-0.197,0.795-0.508,1.473-0.934,2.037
		c-0.425,0.566-0.972,1.002-1.638,1.316C19.857,270.252,19.051,270.408,18.105,270.408z M18.105,268.9
		c0.473,0,0.883-0.068,1.23-0.199c0.348-0.131,0.647-0.311,0.898-0.539c0.252-0.227,0.457-0.492,0.616-0.793
		c0.159-0.303,0.282-0.629,0.373-0.979c0.089-0.35,0.153-0.717,0.188-1.086c0.037-0.375,0.054-0.744,0.054-1.109v-0.754
		c0-0.348-0.017-0.703-0.05-1.068c-0.033-0.363-0.094-0.721-0.184-1.068c-0.089-0.346-0.214-0.676-0.372-0.986
		c-0.16-0.313-0.363-0.582-0.61-0.814c-0.25-0.229-0.549-0.41-0.898-0.545c-0.351-0.137-0.765-0.203-1.243-0.203
		c-0.479,0-0.895,0.066-1.243,0.203c-0.351,0.135-0.651,0.314-0.898,0.545c-0.249,0.232-0.452,0.502-0.611,0.814
		c-0.159,0.311-0.283,0.641-0.372,0.986c-0.09,0.348-0.151,0.705-0.184,1.068c-0.033,0.365-0.05,0.721-0.05,1.068v0.754
		c0,0.365,0.018,0.734,0.054,1.109c0.035,0.373,0.099,0.736,0.188,1.086c0.089,0.35,0.214,0.676,0.373,0.979
		c0.159,0.301,0.363,0.566,0.615,0.793c0.252,0.229,0.551,0.408,0.897,0.539C17.224,268.832,17.632,268.9,18.105,268.9z"/>
	<path fill="#FFFFFF" d="M27.46,257.447l5.96,10.023h0.018v-10.023h1.697v12.762h-2.1l-6.06-10.367H26.94v10.367h-1.688v-12.762
		H27.46z"/>
</g>
</svg>
