<?xml version="1.0" encoding="utf-8"?>
<!-- Generator: Adobe Illustrator 16.0.0, SVG Export Plug-In . SVG Version: 6.00 Build 0)  -->
<!DOCTYPE svg PUBLIC "-//W3C//DTD SVG 1.1//EN" "http://www.w3.org/Graphics/SVG/1.1/DTD/svg11.dtd">
<svg version="1.1" id="Layer_1" xmlns="http://www.w3.org/2000/svg" xmlns:xlink="http://www.w3.org/1999/xlink" x="0px" y="0px"
	 width="60px" height="360px" viewBox="0 0 60 360" enable-background="new 0 0 60 360" xml:space="preserve">
<g>
	<g>
		<circle fill="#CCCCCC" cx="30.084" cy="30" r="30"/>
	</g>
	<g>
		<path fill="#525252" d="M30.084,43.75c-7.582,0-13.75-6.168-13.75-13.75s6.168-13.75,13.75-13.75c7.582,0,13.75,6.168,13.75,13.75
			S37.666,43.75,30.084,43.75z M30.084,20.25c-5.376,0-9.75,4.374-9.75,9.75s4.374,9.75,9.75,9.75s9.75-4.374,9.75-9.75
			S35.46,20.25,30.084,20.25z"/>
	</g>
</g>
<g>
	<g>
		<circle fill="#CCCCCC" cx="30.084" cy="90" r="30"/>
	</g>
	<g>
		<path fill="#525252" d="M30.084,103.75c-7.582,0-13.75-6.168-13.75-13.75s6.168-13.75,13.75-13.75
			c7.582,0,13.75,6.168,13.75,13.75S37.666,103.75,30.084,103.75z M30.084,80.25c-5.376,0-9.75,4.374-9.75,9.75
			s4.374,9.75,9.75,9.75s9.75-4.374,9.75-9.75S35.46,80.25,30.084,80.25z"/>
	</g>
</g>
<g>
	<g enable-background="new    ">
		<circle fill="#EBEBEB" cx="30.084" cy="150" r="30"/>
	</g>
	<g>
		<path fill="#ADADAD" d="M30.084,163.611c-7.582,0-13.75-6.168-13.75-13.75s6.168-13.75,13.75-13.75
			c7.582,0,13.75,6.168,13.75,13.75S37.666,163.611,30.084,163.611z M30.084,140.111c-5.376,0-9.75,4.374-9.75,9.75
			s4.374,9.75,9.75,9.75s9.75-4.374,9.75-9.75S35.46,140.111,30.084,140.111z"/>
	</g>
</g>
<g>
	<g>
		<circle fill="#1DDBD9" cx="30.083" cy="210" r="30"/>
	</g>
	<g>
		<rect x="27.583" y="198.082" fill="#FFFFFF" width="5" height="23.834"/>
	</g>
</g>
<g>
	<g>
		<circle fill="#1DDBD9" cx="30.084" cy="270" r="30"/>
	</g>
	<g>
		<rect x="27.584" y="258.082" fill="#FFFFFF" width="5" height="23.834"/>
	</g>
</g>
<g>
	<g enable-background="new    ">
		<circle fill="#A5F1F0" cx="30.084" cy="330" r="30"/>
	</g>
	<g>
		<rect x="27.584" y="318.083" fill="#FFFFFF" width="5" height="23.834"/>
	</g>
</g>
</svg>
