<?xml version="1.0" encoding="utf-8"?>
<!-- Generator: Adobe Illustrator 16.0.0, SVG Export Plug-In . SVG Version: 6.00 Build 0)  -->
<!DOCTYPE svg PUBLIC "-//W3C//DTD SVG 1.1//EN" "http://www.w3.org/Graphics/SVG/1.1/DTD/svg11.dtd">
<svg version="1.1" id="Layer_1" xmlns="http://www.w3.org/2000/svg" xmlns:xlink="http://www.w3.org/1999/xlink" x="0px" y="0px"
	 width="60px" height="360px" viewBox="0 0 60 360" enable-background="new 0 0 60 360" xml:space="preserve">
<circle fill="#CCCCCC" cx="30" cy="30" r="30"/>
<circle fill="#1DDBD9" cx="29.941" cy="210" r="30"/>
<g>
	<g>
		<path fill="#525252" d="M18.167,38.371c-1.19,0-2.205-0.189-3.044-0.567c-0.838-0.378-1.521-0.919-2.05-1.623
			c-0.527-0.704-0.913-1.554-1.156-2.549s-0.365-2.107-0.365-3.335V29.96c0-1.273,0.131-2.407,0.394-3.403
			c0.262-0.996,0.664-1.838,1.207-2.527c0.543-0.689,1.229-1.215,2.061-1.578c0.831-0.363,1.815-0.545,2.954-0.545
			c1.138,0,2.122,0.182,2.953,0.545c0.831,0.363,1.519,0.889,2.061,1.578c0.543,0.688,0.945,1.531,1.208,2.527
			c0.262,0.996,0.393,2.13,0.393,3.403v0.337c0,1.213-0.123,2.315-0.37,3.307s-0.637,1.842-1.168,2.55
			c-0.532,0.707-1.215,1.254-2.05,1.64C20.358,38.178,19.35,38.371,18.167,38.371z M18.167,36.484c0.591,0,1.104-0.083,1.538-0.247
			c0.435-0.165,0.809-0.389,1.123-0.674s0.571-0.616,0.77-0.994c0.198-0.378,0.354-0.786,0.466-1.224
			c0.112-0.438,0.191-0.891,0.236-1.359c0.045-0.468,0.067-0.93,0.067-1.387v-0.943c0-0.434-0.021-0.88-0.063-1.336
			c-0.041-0.457-0.117-0.902-0.229-1.336c-0.112-0.434-0.268-0.846-0.467-1.235c-0.198-0.389-0.452-0.728-0.764-1.017
			c-0.311-0.288-0.685-0.517-1.123-0.685c-0.438-0.169-0.956-0.253-1.555-0.253c-0.6,0-1.118,0.084-1.556,0.253
			c-0.438,0.168-0.813,0.396-1.123,0.685c-0.311,0.289-0.565,0.627-0.764,1.017c-0.199,0.39-0.354,0.801-0.466,1.235
			c-0.112,0.434-0.189,0.88-0.23,1.336c-0.041,0.456-0.062,0.902-0.062,1.336v0.943c0,0.457,0.022,0.919,0.067,1.387
			c0.045,0.468,0.123,0.921,0.235,1.359c0.112,0.438,0.268,0.846,0.466,1.224c0.199,0.378,0.455,0.709,0.77,0.994
			s0.689,0.509,1.123,0.674C17.063,36.401,17.575,36.484,18.167,36.484z"/>
	</g>
	<g>
		<path fill="#525252" d="M37.296,22.154v1.864h-7.974v5.042h6.625v1.887h-6.625v7.176h-2.28v-15.97h10.254V22.154z"/>
	</g>
	<g>
		<path fill="#525252" d="M49.102,22.154v1.864h-7.974v5.042h6.626v1.887h-6.626v7.176H38.85v-15.97h10.252V22.154z"/>
	</g>
</g>
<circle fill="#CCCCCC" cx="30" cy="90" r="30"/>
<g>
	<g>
		<path fill="#525252" d="M18.167,98.371c-1.19,0-2.205-0.189-3.044-0.567c-0.838-0.378-1.521-0.919-2.05-1.623
			c-0.527-0.704-0.913-1.554-1.156-2.549s-0.365-2.107-0.365-3.335V89.96c0-1.273,0.131-2.407,0.394-3.403
			c0.262-0.996,0.664-1.838,1.207-2.527c0.543-0.689,1.229-1.215,2.061-1.578c0.831-0.363,1.815-0.545,2.954-0.545
			c1.138,0,2.122,0.182,2.953,0.545c0.831,0.363,1.519,0.889,2.061,1.578c0.543,0.688,0.945,1.531,1.208,2.527
			c0.262,0.996,0.393,2.13,0.393,3.403v0.337c0,1.213-0.123,2.315-0.37,3.307s-0.637,1.842-1.168,2.55
			c-0.532,0.707-1.215,1.254-2.05,1.64C20.358,98.178,19.35,98.371,18.167,98.371z M18.167,96.484c0.591,0,1.104-0.083,1.538-0.247
			c0.435-0.165,0.809-0.389,1.123-0.674s0.571-0.616,0.77-0.994c0.198-0.378,0.354-0.786,0.466-1.224
			c0.112-0.438,0.191-0.891,0.236-1.359c0.045-0.468,0.067-0.93,0.067-1.387v-0.943c0-0.434-0.021-0.88-0.063-1.336
			c-0.041-0.457-0.117-0.902-0.229-1.336c-0.112-0.434-0.268-0.846-0.467-1.235c-0.198-0.389-0.452-0.728-0.764-1.017
			c-0.311-0.288-0.685-0.517-1.123-0.685c-0.438-0.169-0.956-0.253-1.555-0.253c-0.6,0-1.118,0.084-1.556,0.253
			c-0.438,0.168-0.813,0.396-1.123,0.685c-0.311,0.289-0.565,0.627-0.764,1.017c-0.199,0.39-0.354,0.801-0.466,1.235
			c-0.112,0.434-0.189,0.88-0.23,1.336c-0.041,0.456-0.062,0.902-0.062,1.336v0.943c0,0.457,0.022,0.919,0.067,1.387
			c0.045,0.468,0.123,0.921,0.235,1.359c0.112,0.438,0.268,0.846,0.466,1.224c0.199,0.378,0.455,0.709,0.77,0.994
			s0.689,0.509,1.123,0.674C17.063,96.401,17.575,96.484,18.167,96.484z"/>
	</g>
	<g>
		<path fill="#525252" d="M37.296,82.154v1.864h-7.974v5.042h6.625v1.887h-6.625v7.176h-2.28v-15.97h10.254V82.154z"/>
	</g>
	<g>
		<path fill="#525252" d="M49.102,82.154v1.864h-7.974v5.042h6.626v1.887h-6.626v7.176H38.85v-15.97h10.252V82.154z"/>
	</g>
</g>
<circle fill="#EBEBEB" cx="30" cy="150" r="30"/>
<g>
	<g>
		<path fill="#ADADAD" d="M18.167,158.371c-1.19,0-2.205-0.189-3.044-0.567c-0.838-0.378-1.521-0.919-2.05-1.623
			c-0.527-0.704-0.913-1.554-1.156-2.549s-0.365-2.107-0.365-3.335v-0.337c0-1.273,0.131-2.407,0.394-3.403
			c0.262-0.996,0.664-1.838,1.207-2.527c0.543-0.689,1.229-1.215,2.061-1.578c0.831-0.363,1.815-0.545,2.954-0.545
			c1.138,0,2.122,0.182,2.953,0.545c0.831,0.363,1.519,0.889,2.061,1.578c0.543,0.688,0.945,1.531,1.208,2.527
			c0.262,0.996,0.393,2.13,0.393,3.403v0.337c0,1.213-0.123,2.315-0.37,3.307s-0.637,1.842-1.168,2.55
			c-0.532,0.707-1.215,1.254-2.05,1.64C20.358,158.178,19.35,158.371,18.167,158.371z M18.167,156.484
			c0.591,0,1.104-0.083,1.538-0.247c0.435-0.165,0.809-0.389,1.123-0.674s0.571-0.616,0.77-0.994
			c0.198-0.378,0.354-0.786,0.466-1.224c0.112-0.438,0.191-0.891,0.236-1.359c0.045-0.468,0.067-0.93,0.067-1.387v-0.943
			c0-0.434-0.021-0.88-0.063-1.336c-0.041-0.457-0.117-0.902-0.229-1.336c-0.112-0.434-0.268-0.846-0.467-1.235
			c-0.198-0.389-0.452-0.728-0.764-1.017c-0.311-0.288-0.685-0.517-1.123-0.685c-0.438-0.169-0.956-0.253-1.555-0.253
			c-0.6,0-1.118,0.084-1.556,0.253c-0.438,0.168-0.813,0.396-1.123,0.685c-0.311,0.289-0.565,0.627-0.764,1.017
			c-0.199,0.39-0.354,0.801-0.466,1.235c-0.112,0.434-0.189,0.88-0.23,1.336c-0.041,0.456-0.062,0.902-0.062,1.336v0.943
			c0,0.457,0.022,0.919,0.067,1.387c0.045,0.468,0.123,0.921,0.235,1.359c0.112,0.438,0.268,0.846,0.466,1.224
			c0.199,0.378,0.455,0.709,0.77,0.994s0.689,0.509,1.123,0.674C17.063,156.401,17.575,156.484,18.167,156.484z"/>
	</g>
	<g>
		<path fill="#ADADAD" d="M37.296,142.154v1.864h-7.974v5.042h6.625v1.887h-6.625v7.176h-2.28v-15.97h10.254V142.154z"/>
	</g>
	<g>
		<path fill="#ADADAD" d="M49.102,142.154v1.864h-7.974v5.042h6.626v1.887h-6.626v7.176H38.85v-15.97h10.252V142.154z"/>
	</g>
</g>
<g>
	<path fill="#FFFFFF" d="M22.595,218.094c-1.19,0-2.205-0.188-3.043-0.568c-0.838-0.377-1.521-0.918-2.05-1.623
		c-0.527-0.699-0.913-1.553-1.156-2.549c-0.244-0.996-0.365-2.104-0.365-3.336v-0.336c0-1.271,0.131-2.408,0.393-3.398
		c0.262-0.996,0.665-1.842,1.208-2.527c0.542-0.688,1.229-1.215,2.061-1.578c0.832-0.359,1.815-0.545,2.954-0.545
		c1.139,0,2.123,0.186,2.954,0.545c0.831,0.363,1.518,0.893,2.061,1.578s0.945,1.531,1.208,2.527
		c0.262,0.99,0.393,2.129,0.393,3.398v0.336c0,1.213-0.124,2.316-0.371,3.313c-0.247,0.993-0.636,1.842-1.168,2.549
		c-0.532,0.707-1.215,1.254-2.049,1.645C24.787,217.9,23.778,218.094,22.595,218.094z M22.595,216.207
		c0.591,0,1.104-0.084,1.539-0.248s0.809-0.389,1.123-0.674s0.571-0.615,0.77-0.994c0.198-0.377,0.354-0.785,0.466-1.223
		c0.112-0.439,0.191-0.896,0.236-1.359c0.045-0.469,0.067-0.932,0.067-1.387v-0.943c0-0.436-0.021-0.881-0.062-1.338
		c-0.041-0.455-0.118-0.902-0.23-1.336s-0.268-0.846-0.466-1.234c-0.198-0.391-0.453-0.729-0.764-1.018
		c-0.311-0.287-0.685-0.516-1.123-0.684c-0.438-0.17-0.956-0.254-1.555-0.254c-0.599,0-1.118,0.084-1.555,0.254
		c-0.438,0.168-0.813,0.396-1.123,0.684c-0.311,0.289-0.565,0.627-0.764,1.018c-0.199,0.389-0.354,0.801-0.466,1.234
		s-0.189,0.881-0.23,1.336c-0.042,0.457-0.062,0.902-0.062,1.338v0.943c0,0.455,0.022,0.918,0.067,1.387
		c0.045,0.467,0.124,0.92,0.236,1.359c0.112,0.438,0.268,0.846,0.466,1.223c0.199,0.379,0.455,0.709,0.77,0.994
		s0.689,0.51,1.123,0.674S22.003,216.207,22.595,216.207z"/>
	<path fill="#FFFFFF" d="M34.301,201.877l7.457,12.543h0.021v-12.543h2.123v15.969h-2.627l-7.582-12.971h-0.045v12.971h-2.111
		v-15.969H34.301z"/>
</g>
<circle fill="#1DDBD9" cx="29.941" cy="270" r="30"/>
<g>
	<path fill="#FFFFFF" d="M22.595,278.094c-1.19,0-2.205-0.188-3.043-0.568c-0.838-0.377-1.521-0.918-2.05-1.621
		c-0.527-0.701-0.913-1.555-1.156-2.551c-0.244-0.996-0.365-2.104-0.365-3.336v-0.336c0-1.271,0.131-2.408,0.393-3.398
		c0.262-0.996,0.665-1.842,1.208-2.527c0.542-0.688,1.229-1.215,2.061-1.578c0.832-0.359,1.815-0.545,2.954-0.545
		c1.139,0,2.123,0.186,2.954,0.545c0.831,0.363,1.518,0.893,2.061,1.578s0.945,1.531,1.208,2.527
		c0.262,0.99,0.393,2.129,0.393,3.398v0.336c0,1.213-0.124,2.316-0.371,3.313c-0.247,0.993-0.636,1.842-1.168,2.549
		c-0.532,0.707-1.215,1.254-2.049,1.645C24.787,277.9,23.778,278.094,22.595,278.094z M22.595,276.207
		c0.591,0,1.104-0.084,1.539-0.248s0.809-0.389,1.123-0.674s0.571-0.615,0.77-0.994c0.198-0.377,0.354-0.785,0.466-1.223
		c0.112-0.439,0.191-0.896,0.236-1.359c0.045-0.469,0.067-0.932,0.067-1.387v-0.943c0-0.436-0.021-0.881-0.062-1.338
		c-0.041-0.455-0.118-0.902-0.23-1.336s-0.268-0.846-0.466-1.234c-0.198-0.391-0.453-0.729-0.764-1.018
		c-0.311-0.287-0.685-0.516-1.123-0.684c-0.438-0.17-0.956-0.254-1.555-0.254c-0.599,0-1.118,0.084-1.555,0.254
		c-0.438,0.168-0.813,0.396-1.123,0.684c-0.311,0.289-0.565,0.627-0.764,1.018c-0.199,0.389-0.354,0.801-0.466,1.234
		s-0.189,0.881-0.23,1.336c-0.042,0.457-0.062,0.902-0.062,1.338v0.943c0,0.455,0.022,0.918,0.067,1.387
		c0.045,0.467,0.124,0.92,0.236,1.359c0.112,0.438,0.268,0.846,0.466,1.223c0.199,0.379,0.455,0.709,0.77,0.994
		s0.689,0.51,1.123,0.674S22.003,276.207,22.595,276.207z"/>
	<path fill="#FFFFFF" d="M34.301,261.877l7.457,12.543h0.021v-12.543h2.123v15.969h-2.627l-7.582-12.971h-0.045v12.971h-2.111
		v-15.969H34.301z"/>
</g>
<circle fill="#A5F1F0" cx="29.941" cy="329.861" r="30"/>
<g>
	<path fill="#FFFFFF" d="M22.595,338.094c-1.19,0-2.205-0.188-3.043-0.568c-0.838-0.377-1.521-0.918-2.05-1.619
		c-0.527-0.703-0.913-1.557-1.156-2.553c-0.244-0.996-0.365-2.104-0.365-3.336v-0.336c0-1.271,0.131-2.408,0.393-3.398
		c0.262-0.996,0.665-1.842,1.208-2.527c0.542-0.688,1.229-1.215,2.061-1.578c0.832-0.359,1.815-0.545,2.954-0.545
		c1.139,0,2.123,0.186,2.954,0.545c0.831,0.363,1.518,0.893,2.061,1.578s0.945,1.531,1.208,2.527
		c0.262,0.99,0.393,2.129,0.393,3.398v0.336c0,1.213-0.124,2.316-0.371,3.313c-0.247,0.993-0.636,1.842-1.168,2.549
		c-0.532,0.707-1.215,1.254-2.049,1.645C24.787,337.9,23.778,338.094,22.595,338.094z M22.595,336.207
		c0.591,0,1.104-0.084,1.539-0.248s0.809-0.389,1.123-0.674s0.571-0.615,0.77-0.994c0.198-0.377,0.354-0.785,0.466-1.223
		c0.112-0.439,0.191-0.896,0.236-1.359c0.045-0.469,0.067-0.932,0.067-1.387v-0.943c0-0.436-0.021-0.881-0.062-1.338
		c-0.041-0.455-0.118-0.902-0.23-1.336s-0.268-0.846-0.466-1.234c-0.198-0.391-0.453-0.729-0.764-1.018
		c-0.311-0.287-0.685-0.516-1.123-0.684c-0.438-0.17-0.956-0.254-1.555-0.254c-0.599,0-1.118,0.084-1.555,0.254
		c-0.438,0.168-0.813,0.396-1.123,0.684c-0.311,0.289-0.565,0.627-0.764,1.018c-0.199,0.389-0.354,0.801-0.466,1.234
		s-0.189,0.881-0.23,1.336c-0.042,0.457-0.062,0.902-0.062,1.338v0.943c0,0.455,0.022,0.918,0.067,1.387
		c0.045,0.467,0.124,0.92,0.236,1.359c0.112,0.438,0.268,0.846,0.466,1.223c0.199,0.379,0.455,0.709,0.77,0.994
		s0.689,0.51,1.123,0.674S22.003,336.207,22.595,336.207z"/>
	<path fill="#FFFFFF" d="M34.301,321.877l7.457,12.543h0.021v-12.543h2.123v15.969h-2.627l-7.582-12.971h-0.045v12.971h-2.111
		v-15.969H34.301z"/>
</g>
</svg>
